/* XPM */
static const char * configurator_xpm[] = {
"48 48 750 2",
"  	c None",
". 	c #B50E00",
"+ 	c #B50D00",
"@ 	c #B70900",
"# 	c #BC0D00",
"$ 	c #EA481D",
"% 	c #AF0900",
"& 	c #CF1200",
"* 	c #CB351B",
"= 	c #FF8448",
"- 	c #D41E00",
"; 	c #A40500",
"> 	c #C30D00",
", 	c #F39E69",
"' 	c #FF854B",
") 	c #FE3C08",
"! 	c #AA0800",
"~ 	c #008C00",
"{ 	c #008A00",
"] 	c #D61600",
"^ 	c #D64C2B",
"/ 	c #FFC688",
"( 	c #FF884F",
"_ 	c #FF4B16",
": 	c #D51C00",
"< 	c #9E0100",
"[ 	c #00A000",
"} 	c #009E00",
"| 	c #009C00",
"1 	c #009500",
"2 	c #009400",
"3 	c #109E0B",
"4 	c #22AA17",
"5 	c #36B624",
"6 	c #048F02",
"7 	c #009200",
"8 	c #CB0E00",
"9 	c #F7C088",
"0 	c #FFB87C",
"a 	c #FF8B52",
"b 	c #FF5822",
"c 	c #FC3100",
"d 	c #A80700",
"e 	c #00A100",
"f 	c #009A01",
"g 	c #0FA30A",
"h 	c #24B219",
"i 	c #3BC027",
"j 	c #51CF36",
"k 	c #65DB42",
"l 	c #76E74E",
"m 	c #85F259",
"n 	c #8BF65C",
"o 	c #86F35A",
"p 	c #84F258",
"q 	c #3EBC2A",
"r 	c #008700",
"s 	c #DE1900",
"t 	c #DE5C37",
"u 	c #FFDF9F",
"v 	c #FFB377",
"w 	c #FF8E53",
"x 	c #FF622B",
"y 	c #FF3905",
"z 	c #D81E00",
"A 	c #960000",
"B 	c #4DCC33",
"C 	c #A6FF6E",
"D 	c #A1FF6B",
"E 	c #A0FF6A",
"F 	c #9DFF67",
"G 	c #94FD64",
"H 	c #8EF85F",
"I 	c #87F35A",
"J 	c #80EE55",
"K 	c #7CEC52",
"L 	c #5AD13C",
"M 	c #008400",
"N 	c #D31400",
"O 	c #FBCF92",
"P 	c #FFD194",
"Q 	c #FFAF73",
"R 	c #FF9056",
"S 	c #FF6932",
"T 	c #FF420D",
"U 	c #F82F00",
"V 	c #AB0900",
"W 	c #9F0000",
"X 	c #22AF16",
"Y 	c #A1FF6C",
"Z 	c #9AFF67",
"` 	c #99FF66",
" .	c #93FB62",
"..	c #8DF75E",
"+.	c #88F35A",
"@.	c #82EF56",
"#.	c #7CEC53",
"$.	c #7AEC52",
"%.	c #1BA012",
"&.	c #E71B00",
"*.	c #E66B41",
"=.	c #FFE4A4",
"-.	c #FFCA8D",
";.	c #FFAD71",
">.	c #FF7037",
",.	c #FF4C17",
"'.	c #DD2200",
").	c #009900",
"!.	c #99FE65",
"~.	c #96FC63",
"{.	c #8FF85F",
"].	c #89F45B",
"^.	c #84F158",
"/.	c #7EED54",
"(.	c #78E950",
"_.	c #73E64D",
":.	c #72E64C",
"<.	c #35B423",
"[.	c #008100",
"}.	c #DC1D00",
"|.	c #FED598",
"1.	c #FFDC9E",
"2.	c #FFC588",
"3.	c #FFAB70",
"4.	c #FF9157",
"5.	c #FF753D",
"6.	c #FF541E",
"7.	c #FE3704",
"8.	c #F32D00",
"9.	c #B30E00",
"0.	c #A10000",
"a.	c #009B00",
"b.	c #82F056",
"c.	c #9AFF66",
"d.	c #91F960",
"e.	c #8BF65D",
"f.	c #7AEA51",
"g.	c #74E64D",
"h.	c #6EE249",
"i.	c #6AE047",
"j.	c #68DF45",
"k.	c #44C02D",
"l.	c #007E00",
"m.	c #E11E00",
"n.	c #ED7B4C",
"o.	c #FFE3A4",
"p.	c #FFD79B",
"q.	c #FFC185",
"r.	c #FFAA6F",
"s.	c #FF9258",
"t.	c #FF793F",
"u.	c #FF5B24",
"v.	c #FF3E0B",
"w.	c #F82E00",
"x.	c #E22400",
"y.	c #980000",
"z.	c #009F00",
"A.	c #5BD53C",
"B.	c #97FE65",
"C.	c #7CEB52",
"D.	c #70E44B",
"E.	c #65DC43",
"F.	c #5FD83F",
"G.	c #5CD73D",
"H.	c #3BB827",
"I.	c #007A00",
"J.	c #E22702",
"K.	c #FEDC9F",
"L.	c #FFDD9F",
"M.	c #FFD497",
"N.	c #FFBE82",
"O.	c #FFA86D",
"P.	c #FF945A",
"Q.	c #FF7B44",
"R.	c #FF602A",
"S.	c #FF4611",
"T.	c #FC3200",
"U.	c #F02B00",
"V.	c #BC1100",
"W.	c #A00000",
"X.	c #34BC23",
"Y.	c #83F057",
"Z.	c #7EEC53",
"`.	c #72E54C",
" +	c #6CE148",
".+	c #66DD44",
"++	c #61D940",
"@+	c #55D33A",
"#+	c #53D338",
"$+	c #1E9914",
"%+	c #007C00",
"&+	c #EB2200",
"*+	c #F28B58",
"=+	c #FFE2A3",
"-+	c #FFDB9D",
";+	c #FFD193",
">+	c #FFBC7F",
",+	c #FFA76C",
"'+	c #FF9359",
")+	c #FF7F45",
"!+	c #FF652E",
"~+	c #FF4C18",
"{+	c #FF3604",
"]+	c #F42D00",
"^+	c #E72600",
"/+	c #9C0100",
"(+	c #0DA209",
"_+	c #94FB62",
":+	c #85F35A",
"<+	c #7FEE55",
"[+	c #68DE45",
"}+	c #62DB42",
"|+	c #5DD73E",
"1+	c #57D33A",
"2+	c #4DCC32",
"3+	c #47C72E",
"4+	c #007600",
"5+	c #EB3109",
"6+	c #FFE1A3",
"7+	c #FFCC8F",
"8+	c #FFB97D",
"9+	c #FF8047",
"0+	c #FF521D",
"a+	c #F92F00",
"b+	c #EE2A00",
"c+	c #C31500",
"d+	c #970000",
"e+	c #85F158",
"f+	c #82F057",
"g+	c #6AE148",
"h+	c #64DC43",
"i+	c #5ED83F",
"j+	c #59D43B",
"k+	c #53D037",
"l+	c #4DCD34",
"m+	c #48C930",
"n+	c #45C92E",
"o+	c #17910F",
"p+	c #F22400",
"q+	c #F79862",
"r+	c #FFE1A1",
"s+	c #FFD99B",
"t+	c #FFC98C",
"u+	c #FFA66B",
"v+	c #FF8249",
"w+	c #FF6D35",
"x+	c #FF5721",
"y+	c #FF420E",
"z+	c #FD3200",
"A+	c #F22D00",
"B+	c #E92700",
"C+	c #9F0400",
"D+	c #009800",
"E+	c #60D740",
"F+	c #84F157",
"G+	c #52CC37",
"H+	c #049004",
"I+	c #57CE3A",
"J+	c #6BE247",
"K+	c #61DA41",
"L+	c #5AD53C",
"M+	c #55D138",
"N+	c #4FCE35",
"O+	c #4ACA31",
"P+	c #44C62D",
"Q+	c #3FC42A",
"R+	c #27A519",
"S+	c #006C00",
"T+	c #F33F11",
"U+	c #B6BA6D",
"V+	c #FFC689",
"W+	c #FFB67A",
"X+	c #FFA56A",
"Y+	c #FF955B",
"Z+	c #FF854C",
"`+	c #FF7038",
" @	c #FF5C25",
".@	c #FF4813",
"+@	c #FF3603",
"@@	c #F52E00",
"#@	c #ED2A00",
"$@	c #CC1900",
"%@	c #3EBF29",
"&@	c #75E54D",
"*@	c #008B00",
"=@	c #008300",
"-@	c #2AAA1C",
";@	c #60DA3F",
">@	c #59D53B",
",@	c #4BCB32",
"'@	c #46C82F",
")@	c #40C42B",
"!@	c #3BC228",
"~@	c #2BAE1C",
"{@	c #006B00",
"]@	c #FA2700",
"^@	c #FBA86E",
"/@	c #FFDFA1",
"(@	c #CDC57D",
"_@	c #35821F",
":@	c #FFC487",
"<@	c #FFB479",
"[@	c #FF733B",
"}@	c #FF6029",
"|@	c #FF4D18",
"1@	c #FE3A07",
"2@	c #FA3000",
"3@	c #EF2B00",
"4@	c #E92800",
"5@	c #A60700",
"6@	c #1DA513",
"7@	c #149D0D",
"8@	c #008600",
"9@	c #0D8D08",
"0@	c #4ECB34",
"a@	c #49CA31",
"b@	c #42C52C",
"c@	c #3CC128",
"d@	c #37BE24",
"e@	c #29AC1B",
"f@	c #006900",
"g@	c #FD2F00",
"h@	c #FA4D1B",
"i@	c #FFE5A6",
"j@	c #F9D899",
"k@	c #2B7B1A",
"l@	c #297D17",
"m@	c #FFC285",
"n@	c #FFA469",
"o@	c #FF955C",
"p@	c #FF884D",
"q@	c #FF632C",
"r@	c #FF511C",
"s@	c #FF3F0C",
"t@	c #EC2900",
"u@	c #D51D00",
"v@	c #008D00",
"w@	c #017F01",
"x@	c #3FBF2A",
"y@	c #46C82E",
"z@	c #3EC229",
"A@	c #38BE25",
"B@	c #33BD23",
"C@	c #20A216",
"D@	c #FF2E00",
"E@	c #FC955C",
"F@	c #FFE7A8",
"G@	c #FFDE9F",
"H@	c #84A552",
"I@	c #057303",
"J@	c #1F7A12",
"K@	c #FFC083",
"L@	c #FFB276",
"M@	c #FF965C",
"N@	c #FF894E",
"O@	c #FF662F",
"P@	c #FF5520",
"Q@	c #FF4410",
"R@	c #FF3502",
"S@	c #F22C00",
"T@	c #E02300",
"U@	c #9A0000",
"V@	c #007900",
"W@	c #39BB26",
"X@	c #2FBA20",
"Y@	c #15900E",
"Z@	c #006600",
"`@	c #FA2900",
" #	c #F66F3C",
".#	c #E6BD7D",
"+#	c #0C6A08",
"@#	c #22AD17",
"##	c #066C03",
"$#	c #F9BE80",
"%#	c #FFB376",
"&#	c #FFA46A",
"*#	c #FF975C",
"=#	c #FF8950",
"-#	c #FF7B42",
";#	c #FF6A33",
">#	c #FF4C15",
",#	c #FF3C06",
"'#	c #F72E00",
")#	c #C71600",
"!#	c #A80000",
"~#	c #005BBA",
"{#	c #0054BA",
"]#	c #004EB5",
"^#	c #004BBA",
"/#	c #00665D",
"(#	c #067C04",
"_#	c #38BF26",
":#	c #30BA20",
"<#	c #2DB91E",
"[#	c #077704",
"}#	c #FF2900",
"|#	c #6C4700",
"1#	c #0E8509",
"2#	c #2CBC1E",
"3#	c #077904",
"4#	c #B4914B",
"5#	c #FAA46D",
"6#	c #FF9C61",
"7#	c #FF8C53",
"8#	c #FD7841",
"9#	c #EF5B2C",
"0#	c #DD3E19",
"a#	c #C9240B",
"b#	c #AD0D02",
"c#	c #0056C0",
"d#	c #3079D2",
"e#	c #78AAED",
"f#	c #6FA3EA",
"g#	c #518AD9",
"h#	c #3472CA",
"i#	c #086D35",
"j#	c #1C9A12",
"k#	c #2EB91E",
"l#	c #23AB17",
"m#	c #006307",
"n#	c #016400",
"o#	c #3A5900",
"p#	c #BA0900",
"q#	c #B10600",
"r#	c #AA0300",
"s#	c #005FC3",
"t#	c #0B65C7",
"u#	c #66A1E7",
"v#	c #84B5F3",
"w#	c #7BADEF",
"x#	c #75A8ED",
"y#	c #72A5EB",
"z#	c #6FA1E9",
"A#	c #4F93AB",
"B#	c #116255",
"C#	c #1040A3",
"D#	c #002B92",
"E#	c #00258D",
"F#	c #002390",
"G#	c #0067D2",
"H#	c #005DC6",
"I#	c #3E8ADB",
"J#	c #8EBFF8",
"K#	c #88BAF5",
"L#	c #80B3F3",
"M#	c #7CAFF0",
"N#	c #77AAED",
"O#	c #6DA0E8",
"P#	c #669AE0",
"Q#	c #026C05",
"R#	c #04670B",
"S#	c #4F87CA",
"T#	c #5285DD",
"U#	c #4C80D8",
"V#	c #3A6AC9",
"W#	c #2654B6",
"X#	c #0E3297",
"Y#	c #006500",
"Z#	c #0060C5",
"`#	c #1770CE",
" $	c #7CB8F3",
".$	c #97C9FD",
"+$	c #8DC0F9",
"@$	c #88BBF6",
"#$	c #83B6F3",
"$$	c #7EB1F1",
"%$	c #79ACEE",
"&$	c #73A6EB",
"*$	c #6EA1E9",
"=$	c #699CE6",
"-$	c #0C741C",
";$	c #2E7C73",
">$	c #5487DC",
",$	c #4F82D9",
"'$	c #4A7DD8",
")$	c #4478D5",
"!$	c #5580D5",
"~$	c #1D41A5",
"{$	c #006800",
"]$	c #0059C1",
"^$	c #6C9BE6",
"/$	c #86B2F0",
"($	c #9BC5F7",
"_$	c #A0CCFB",
":$	c #8CBEF9",
"<$	c #84B7F5",
"[$	c #7EB2F1",
"}$	c #79ACEF",
"|$	c #75A8EC",
"1$	c #6FA2E9",
"2$	c #6A9DE7",
"3$	c #107525",
"4$	c #106F26",
"5$	c #588CDA",
"6$	c #5588DC",
"7$	c #4F82DA",
"8$	c #4F83D9",
"9$	c #7799DC",
"0$	c #2C53B7",
"a$	c #12349A",
"b$	c #0057BC",
"c$	c #5C8DE0",
"d$	c #5689DC",
"e$	c #5387DC",
"f$	c #6190DF",
"g$	c #84A9E7",
"h$	c #99BBEE",
"i$	c #ABCBF5",
"j$	c #ABCCF6",
"k$	c #8BB7F1",
"l$	c #70A4EA",
"m$	c #679CE7",
"n$	c #14762F",
"o$	c #4C8CB5",
"p$	c #598CDF",
"q$	c #5285DC",
"r$	c #6A98E2",
"s$	c #8BA7DF",
"t$	c #224AB2",
"u$	c #244BB1",
"v$	c #0D2D93",
"w$	c #006A00",
"x$	c #008200",
"y$	c #009A00",
"z$	c #0055BA",
"A$	c #6394E2",
"B$	c #5D90E0",
"C$	c #5C8FE0",
"D$	c #5B8EDF",
"E$	c #578ADE",
"F$	c #5589DC",
"G$	c #5185DB",
"H$	c #5F8EDE",
"I$	c #88ACE7",
"J$	c #ADC8F1",
"K$	c #BFD7F7",
"L$	c #83B8B0",
"M$	c #97BBEE",
"N$	c #749FE6",
"O$	c #91B6ED",
"P$	c #88A3DB",
"Q$	c #1E45AE",
"R$	c #2348AE",
"S$	c #2448AE",
"T$	c #08268B",
"U$	c #009700",
"V$	c #0454B9",
"W$	c #6A9AE6",
"X$	c #6295E3",
"Y$	c #6194E2",
"Z$	c #6093E2",
"`$	c #5E91E1",
" %	c #5A8DDF",
".%	c #588BDE",
"+%	c #5386DC",
"@%	c #4E82DB",
"#%	c #487DD8",
"$%	c #5989DB",
"%%	c #7FA6E5",
"&%	c #B3CEF5",
"*%	c #97B1E1",
"=%	c #1940AB",
"-%	c #2246AC",
";%	c #2144AA",
">%	c #2243A9",
",%	c #041F85",
"'%	c #009300",
")%	c #0A55B9",
"!%	c #6E9FE9",
"~%	c #679AE5",
"{%	c #6699E5",
"]%	c #6598E4",
"^%	c #6396E3",
"/%	c #5F92E1",
"(%	c #598CDE",
"_%	c #5689DD",
":%	c #5386DB",
"<%	c #4F83DA",
"[%	c #487CD7",
"}%	c #6694E0",
"|%	c #728FD1",
"1%	c #1D40A8",
"2%	c #2042A8",
"3%	c #1F40A6",
"4%	c #1F3FA5",
"5%	c #011A80",
"6%	c #0D54B6",
"7%	c #73A5EB",
"8%	c #6C9FE8",
"9%	c #6B9EE7",
"0%	c #6A9DE6",
"a%	c #689BE6",
"b%	c #6497E3",
"c%	c #5E91E0",
"d%	c #578ADD",
"e%	c #5487DB",
"f%	c #719EE5",
"g%	c #607DC6",
"h%	c #1C3DA5",
"i%	c #1E3EA4",
"j%	c #1D3BA1",
"k%	c #1C399F",
"l%	c #00167C",
"m%	c #1154B4",
"n%	c #78ABEF",
"o%	c #71A4EA",
"p%	c #70A3EA",
"q%	c #7AA4E7",
"r%	c #4D6ABC",
"s%	c #1B3AA1",
"t%	c #1B379D",
"u%	c #163197",
"v%	c #00157B",
"w%	c #1856B5",
"x%	c #7DB0F0",
"y%	c #74A7EB",
"z%	c #72A5EA",
"A%	c #80ABEB",
"B%	c #3A57AF",
"C%	c #1A359C",
"D%	c #1A359B",
"E%	c #1A349A",
"F%	c #122B91",
"G%	c #00127F",
"H%	c #1C57B4",
"I%	c #82B5F4",
"J%	c #7AADEF",
"K%	c #78ABEE",
"L%	c #76A9ED",
"M%	c #588CDF",
"N%	c #85B1EF",
"O%	c #2944A3",
"P%	c #183299",
"Q%	c #183197",
"R%	c #163096",
"S%	c #0D2389",
"T%	c #00117E",
"U%	c #2058B4",
"V%	c #89BCF7",
"W%	c #81B4F2",
"X%	c #7FB2F1",
"Y%	c #7BAEEF",
"Z%	c #6EA1E8",
"`%	c #6699E4",
" &	c #5B8FE0",
".&	c #88B4F1",
"+&	c #173096",
"@&	c #162D93",
"#&	c #152C92",
"$&	c #0A1D83",
"%&	c #000F7C",
"&&	c #255AB4",
"*&	c #8EC1F9",
"=&	c #85B8F5",
"-&	c #84B7F4",
";&	c #82B5F3",
">&	c #6497E4",
",&	c #83AFEC",
"'&	c #102790",
")&	c #152B91",
"!&	c #13298F",
"~&	c #13278D",
"{&	c #07187E",
"]&	c #000C79",
"^&	c #2C5EB5",
"/&	c #93C6FD",
"(&	c #8ABDF7",
"_&	c #86B9F5",
":&	c #80B3F2",
"<&	c #74A7EC",
"[&	c #6C9FE7",
"}&	c #6396E4",
"|&	c #79A2E5",
"1&	c #0E228B",
"2&	c #11248A",
"3&	c #112389",
"4&	c #041278",
"5&	c #009901",
"6&	c #3162B7",
"7&	c #98CBFF",
"8&	c #8FC2FB",
"9&	c #8DC0F8",
"0&	c #87BAF5",
"a&	c #83B6F4",
"b&	c #6598E5",
"c&	c #6C95DA",
"d&	c #0D1F87",
"e&	c #102389",
"f&	c #102187",
"g&	c #0B1A80",
"h&	c #000B71",
"i&	c #009100",
"j&	c #315FB3",
"k&	c #A2D6FF",
"l&	c #9BCFFF",
"m&	c #96C9FE",
"n&	c #8FC2FA",
"o&	c #8CBFF7",
"p&	c #689CE6",
"q&	c #5E85D0",
"r&	c #0C1C84",
"s&	c #0F1F85",
"t&	c #0C1A80",
"u&	c #008900",
"v&	c #00238A",
"w&	c #052C91",
"x&	c #3660B4",
"y&	c #6795D9",
"z&	c #92C6FB",
"A&	c #96CAFF",
"B&	c #8EC3FB",
"C&	c #87BAF6",
"D&	c #699DE9",
"E&	c #5275C4",
"F&	c #0A177F",
"G&	c #0B197F",
"H&	c #010C71",
"I&	c #00208D",
"J&	c #001C8A",
"K&	c #001B83",
"L&	c #2145A0",
"M&	c #4F79C5",
"N&	c #7BABEB",
"O&	c #8BC0FA",
"P&	c #84B8F6",
"Q&	c #6B9FE9",
"R&	c #4462B7",
"S&	c #08147B",
"T&	c #010C73",
"U&	c #00077A",
"V&	c #001583",
"W&	c #001179",
"X&	c #0E288A",
"Y&	c #385BAF",
"Z&	c #5E8BD4",
"`&	c #79AEF0",
" *	c #76AAEF",
".*	c #71A6EE",
"+*	c #344FA9",
"@*	c #00076F",
"#*	c #000974",
"$*	c #000972",
"%*	c #011077",
"&*	c #233D98",
"**	c #4A70C3",
"=*	c #122183",
"-*	c #00066C",
";*	c #00076E",
">*	c #00026A",
",*	c #00046C",
"                                                                                                ",
"                                                                                                ",
"                        .                                                                       ",
"                        + @                                                                     ",
"                      # $ %                                                                     ",
"                    & * = - ;                                                                   ",
"                    > , ' ) !                                           ~ {                     ",
"                  ] ^ / ( _ : <                         [ } | 1 2 3 4 5 6 7                     ",
"                  8 9 0 a b c d               e f g h i j k l m n o p q r                       ",
"                s t u v w x y z A             1 B C D E F G H I J K L M                         ",
"                N O P Q R S T U V W             X Y Z `  ...+.@.#.$.%.M                         ",
"              &.*.=.-.;.R >.,.c '.A             ).Y !.~.{.].^./.(._.:.<.[.                      ",
"              }.|.1.2.3.4.5.6.7.8.9.0.          a.b.c.d.e.m J f.g.h.i.j.k.l.                    ",
"            m.n.o.p.q.r.s.t.u.v.w.x.y.          z.A.B...I @.C.l D.i.E.F.G.H.I.                  ",
"            J.K.L.M.N.O.P.Q.R.S.T.U.V.W.          X.~.].Y.Z.(.`. +.+++A.@+#+$+%+                ",
"          &+*+=+-+;+>+,+'+)+!+~+{+]+^+/+          (+_+:+<+f.g.h.[+}+|+1+j 2+3+4+                ",
"          5+6+1.-+7+8+,+P.9+S 0+) a+b+c+d+        2 e+f+/.(.`.g+h+i+j+k+l+m+n+o+                ",
"        p+q+r+-+s+t+0 u+P.v+w+x+y+z+A+B+C+        D+E+F+G+H+I+J+K+L+M+N+O+P+Q+R+S+              ",
"        T+o.1.1.U+V+W+X+Y+Z+`+ @.@+@@@#@$@d+      a.%@&@*@  =@-@;@>@j ,@'@)@!@~@{@              ",
"      ]@^@/@-+(@_@:@<@X+Y+Z+[@}@|@1@2@3@4@5@W       6@7@      8@9@0@N+a@b@c@d@e@f@              ",
"    g@h@i@1.j@k@l@m@v n@o@p@5.q@r@s@z+8.t@u@y.      v@7           w@x@y@z@A@B@C@f@              ",
"    D@E@F@G@H@I@J@K@L@n@M@N@t.O@P@Q@R@U S@T@U@      2               V@W@!@X.X@Y@Z@              ",
"      `@ #.#+#@###$#%#&#*#=#-#;#u.>#,#'#)#U@!#              ~#{#]#^#/#(#_#:#<#[#                ",
"        }#|#1#2#3#4#5#n@6#7#8#9#0#a#b#A W                 c#d#e#f#g#h#i#j#k#l#m#                ",
"          n#l#k#j#o#> p#q#r#0.W W W                   s#t#u#v#w#x#y#z#A#3#2#1#B#C#D#E#F#        ",
"          [#<#:#_#(#                              G#H#I#J#K#L#M#N#y#O#P#Q#@#R#S#T#U#V#W#X#      ",
"        Y#Y@X@X.!@W@V@              2           Z#`# $.$+$@$#$$$%$&$*$=$-$I@;$>$,$'$)$!$~$      ",
"        {$C@B@A@z@y@x@w@          7 ~           ]$^$/$($_$:$<$[$}$|$1$2$3$4$5$6$7$8$9$0$a$      ",
"        {$e@d@c@b@a@N+0@9@8@      7@6@          b$c$d$e$f$g$h$i$j$k$l$m$n$o$p$q$r$s$t$u$v$      ",
"        w$~@!@)@'@,@j >@;@-@x$  { &@%@y$        z$A$B$C$D$E$F$G$H$I$J$K$L$M$N$O$P$Q$R$S$T$      ",
"        S+R+Q+P+O+N+M+L+K+J+I+H+G+F+E+U$        V$W$X$Y$Z$`$C$ %.%+%@%#%$%%%&%*%=%-%;%>%,%      ",
"          o+n+m+l+k+j+i+h+g+`.(./.f+e+'%        )%!%~%{%]%^%Y$/%C$(%_%:%<%[%}%|%1%2%3%4%5%      ",
"          4+3+2+j 1+|+}+[+h.g.f.<+:+_+(+        6%7%8%9%0%a%{%b%Y$c% %d%e%7$f%g%h%i%j%k%l%      ",
"          %+$+#+@+A.++.+ +`.(.Z.Y.].~.X.        m%n%o%p%1$O#9%a%]%X$/%D$d%G$q%r%s%k%t%u%v%      ",
"            V@H.G.F.E.i.D.l C.@.I ..B.A.}       w%x%N#|$y%z%1$8%=${%^%/%D$_%A%B%C%D%E%F%G%      ",
"              l.k.j.i.h.g.f.J m e.d.c.b.y$      H%I%M#J%K%L%y%o%O#2${%X$`$M%N%O%P%Q%R%S%T%      ",
"                [.<.:._.(./.^.].{.~.!.Y D+      U%V%W%X%x%Y%K%|$o%Z%0%`%Y$ &.&Q%+&@&#&$&%&      ",
"                  M %.$.#.@.+... .` Z Y X       &&*&=&-&;&X%M#K%|$o%O#=$>&/%,&'&)&!&~&{&]&      ",
"                  =@L K J I H G F E D C B 1     ^&/&(&@$_&#$:&M#K%<&p%[&~%}&|&1&~&2&3&4&        ",
"                r q p o n m l k j i h g 5&[     6&7&8&9&(&0&a&:&Y%N#&$*$=$b&c&d&e&f&g&h&        ",
"              i&6 5 4 3 '%1 | } [               j&k&l&m&n&o&0&#$$$J%|$p%9%p&q&r&s&t&h&          ",
"              u&~                               v&w&x&y&z&A&B&C&;&M#N#y#O#D&E&F&G&H&            ",
"                                                    I&J&K&L&M&N&O&P&M#|$1$Q&R&S&T&U&            ",
"                                                            V&W&X&Y&Z&`& *.*+*@*#*              ",
"                                                                  %&$*%*&***=*-*                ",
"                                                                        ;*>*,*                  ",
"                                                                                                ",
"                                                                                                "};
